
	<!-- Book -->
	<svg xmlns="http://www.w3.org/2000/svg">
	<symbol id="book" viewBox="0 0 250 250">
		<title>Book</title>
		<style type="text/css">
			.st0{fill:#FFFFFF;stroke:#000000;stroke-width:8;stroke-miterlimit:10;}
			.st1{stroke:#000000;stroke-width:8;stroke-miterlimit:10;}
		</style>
		<path class="st0" d="M162.9,661.6H97.6c-6.6,0-12-5.4-12-12V168c0-6.6,5.4-12,12-12h65.4c6.6,0,12,5.4,12,12v481.6
			C174.9,656.2,169.5,661.6,162.9,661.6z"/>
		<rect x="166.5" y="156" class="st0" width="347.6" height="505.6"/>
		<rect x="85.6" y="196.6" class="st1" width="80.9" height="41"/>
		<rect x="85.6" y="264.1" class="st1" width="80.9" height="41"/>
		<rect x="89.8" y="515.6" class="st1" width="76.7" height="41"/>
		<rect x="86.6" y="580.9" class="st1" width="78.8" height="41"/>
		<polyline class="st1" points="418.6,156 418.6,301.6 451,254.6 480.7,304.8 480.7,156 "/>
	</symbol>
	<!-- Train -->
	<symbol id="train" viewBox="0 0 250 250">
		<title>Train</title>
		<style type="text/css">
			.st0{stroke:#000000;stroke-width:8;stroke-miterlimit:10;}
			.st1{fill:#FFFFFF;stroke:#000000;stroke-width:8;stroke-miterlimit:10;}
		</style>
		<circle class="st0" cx="94.9" cy="524.9" r="55.3"/>
		<circle class="st0" cx="497.6" cy="524.9" r="55.3"/>
		<path class="st1" d="M532.3,505.7H62.9c-29.3,0-53-23.7-53-53V280c0-29.3,23.7-53,53-53h469.4c29.3,0,53,23.7,53,53v172.7
			C585.3,482,561.6,505.7,532.3,505.7z"/>
		<path class="st1" d="M162.3,397.9h-101c-17.6,0-31.9-14.3-31.9-31.9v-76.7c0-17.6,14.3-31.9,31.9-31.9h101
			c17.6,0,31.9,14.3,31.9,31.9v76.7C194.3,383.6,180,397.9,162.3,397.9z"/>
		<path class="st1" d="M353.4,397.9H241.6c-17.6,0-31.9-14.3-31.9-31.9v-76.7c0-17.6,14.3-31.9,31.9-31.9h111.9
			c17.6,0,31.9,14.3,31.9,31.9v76.7C385.4,383.6,371.1,397.9,353.4,397.9z"/>
		<path class="st1" d="M521,397.9h-90.2c-17.6,0-31.9-14.3-31.9-31.9v-76.7c0-17.6,14.3-31.9,31.9-31.9H521
			c17.6,0,31.9,14.3,31.9,31.9v76.7C552.9,383.6,538.6,397.9,521,397.9z"/>
		<path class="st0" d="M61.6,313.1"/>
		<path class="st0" d="M61.4,397.9l0.3-84.8c0,0-1.9-19.5,15.6-19.5s17.6,19.5,17.6,19.5v84.8"/>
		<path class="st0" d="M246,397.9l0.3-84.8c0,0-1.9-19.5,15.6-19.5s17.6,19.5,17.6,19.5v84.8"/>
		<path class="st0" d="M425.6,397.9l0.3-84.8c0,0-1.9-19.5,15.6-19.5s17.6,19.5,17.6,19.5v84.8"/>
		<rect x="10" y="424.4" class="st0" width="575.3" height="28.3"/>
	</symbol>
	<!-- Composition Book -->
	<symbol id="composition-book" viewBox="0 0 250 250">
		<title>Composition Book</title>
		<defs><style>.cls-1{fill:#fff;}.cls-1,.cls-2{stroke:#231f20;stroke-miterlimit:10;stroke-width:8px;}.cls-2{fill:#231f20;}</style></defs><title>composition-book</title><rect class="cls-1" x="4" y="4" width="89.36" height="693.06" rx="12" ry="12"/><rect class="cls-2" x="63.5" y="4" width="423.59" height="693.06"/><rect class="cls-1" x="135.03" y="105.04" width="277.86" height="151.56" rx="12" ry="12"/><rect class="cls-1" x="152.7" y="123.58" width="242.17" height="114.47" rx="12" ry="12"/>
	</symbol>
	<!-- Minolta -->
	<symbol id="minolta" viewBox="0 0 250 250">
	<title>Minolta</title>
		<style type="text/css">
			.st0{fill:#FFFFFF;stroke:#000000;stroke-width:8;stroke-miterlimit:10;}
			.st1{stroke:#000000;stroke-width:8;stroke-miterlimit:10;}
		</style>
		<path class="st0" d="M520.8,560.2H78.5c-29.3,0-53-23.7-53-53V334.5c0-29.3,23.7-53,53-53h442.3c29.3,0,53,23.7,53,53v172.7
			C573.8,536.4,550,560.2,520.8,560.2z"/>
		<rect x="25.5" y="401.4" class="st1" width="548.2" height="110"/>
		<path class="st0" d="M524.5,261h-97.1c-5.7,0-10.4,4.7-10.4,10.4v0c0,5.7,4.7,10.4,10.4,10.4h97.1c5.7,0,10.4-4.7,10.4-10.4v0
			C534.9,265.6,530.2,261,524.5,261z"/>
		<rect x="330.4" y="305.7" class="st0" width="204.5" height="69.7"/>
		<rect x="476" y="318" class="st0" width="45.2" height="45.2"/>
		<circle class="st0" cx="299.6" cy="442" r="101.4"/>
		<circle class="st1" cx="299.6" cy="442" r="83.3"/>
	</symbol>
	<!-- Pencil -->
	<symbol id="pencil" viewBox="0 0 250 250">
		<title>Pencil</title>
		<style type="text/css">
			.st0{fill:#FFFFFF;stroke:#000000;stroke-width:8;stroke-miterlimit:10;}
			.st1{fill:none;stroke:#000000;stroke-width:8;stroke-miterlimit:10;}
		</style>
		<path class="st0" d="M332.2,657.2h-69.1c-15.7,0-28.4-12.7-28.4-28.4v-431c0-15.7,12.7-28.4,28.4-28.4h69.1
			c15.7,0,28.4,12.7,28.4,28.4v431C360.6,644.5,347.9,657.2,332.2,657.2z"/>
		<polyline class="st1" points="274.3,169.4 274.3,178.8 274.3,657.2 "/>
		<line class="st1" x1="320" y1="169.4" x2="320" y2="657.2"/>
		<path class="st0" d="M293.6,56.4"/>
		<path class="st0" d="M237,187.7l56.9-120.8l64.8,120.8l-18.3,26l-23.8-23.4l-18.7,31.2c-6.5-7.7-23-26.9-24.7-28.9l-24.5,24.5
			L237,187.7z"/>
		<polygon points="293.9,66.9 312.6,101.8 274.3,101.8 "/>
		<path class="st0" d="M234.7,636.7v32.7c0,0,2.4,15.6,63,16.1c60.6,0.5,63-13.3,63-13.3v-35.5c0,0-28.4,20.5-63,20.5
			S234.7,636.7,234.7,636.7z"/>
		<path class="st0" d="M234.7,669.4v92.5c26.4,18.4,47.4,21.4,62.3,20.3c28.8-2.2,63.6-22,63.6-22v-87.9c0,0-32,13.4-63,13.3
			C266.7,685.4,234.7,669.4,234.7,669.4z"/>
	</symbol>
	<!-- Postcards --> 
	<symbol id="postcards" viewBox="0 0 250 250">
		<title>Postcards</title>
		<style type="text/css">
			.st0{fill:#FFFFFF;stroke:#000000;stroke-width:8;stroke-miterlimit:10;}
			.st1{fill:none;stroke:#000000;stroke-width:8;stroke-linecap:round;stroke-miterlimit:10;}
		</style>
		<path class="st0" d="M545.8,461L116.5,567.5c-28.4,7-57.1-10.3-64.2-38.7L10.8,361.2c-7-28.4,10.3-57.1,38.7-64.2l429.3-106.5
			c28.4-7,57.1,10.3,64.2,38.7l41.6,167.6C591.5,425.2,574.2,453.9,545.8,461z"/>
		<line class="st1" x1="87" y1="394.8" x2="246.1" y2="363.2"/>
		<path class="st0" d="M526.6,657.7H84.3c-29.3,0-53-23.7-53-53V432c0-29.3,23.7-53,53-53h442.3c29.3,0,53,23.7,53,53v172.7
			C579.6,633.9,555.9,657.7,526.6,657.7z"/>
		<rect x="437.7" y="227" transform="matrix(0.9706 -0.2408 0.2408 0.9706 -49.1602 121.5141)" class="st0" width="69.7" height="69.7"/>
		<line class="st1" x1="85.5" y1="493" x2="247.7" y2="493"/>
		<line class="st1" x1="85.5" y1="526.6" x2="247.7" y2="526.6"/>
		<line class="st1" x1="85.5" y1="560.9" x2="247.7" y2="560.9"/>
		<rect x="472.6" y="420.9" class="st0" width="69.7" height="69.7"/>
		<line class="st1" x1="305.4" y1="411.9" x2="305.4" y2="624.8"/>
		<path class="st1" d="M247.7,132.7"/>
		<path class="st1" d="M371,442.8c0,0,25.3-8.5,43.8-7.8c18.6,0.6,37.3,9.3,54.4,9.1s28.5-6.3,28.5-6.3"/>
		<path class="st1" d="M371.3,456.5c0,0,25.3-8.5,43.8-7.8s37.3,9.3,54.4,9.1c17.1-0.2,28.5-6.3,28.5-6.3"/>
		<path class="st1" d="M371,470.2c0,0,25.3-8.5,43.8-7.8s37.3,9.3,54.4,9.1c17.1-0.2,28.5-6.3,28.5-6.3"/>
		<path class="st1" d="M339.5,282.3c0,0,22.2-14.7,40.3-18.9c18.1-4.2,38.4-0.7,54.9-5.3c16.5-4.6,25.9-13.5,25.9-13.5"/>
		<path class="st1" d="M343.3,295.5c0,0,22.2-14.7,40.3-18.9c18.1-4.2,38.4-0.7,54.9-5.3c16.5-4.6,25.9-13.5,25.9-13.5"/>
		<path class="st1" d="M346.6,308.8c0,0,22.2-14.7,40.3-18.9c18.1-4.2,38.4-0.7,54.9-5.3c16.5-4.6,25.9-13.5,25.9-13.5"/>
	</symbol>
	<!-- Ticket -->
	<symbol id="ticket" viewBox="0 0 250 250">
		<title>Ticket</title>
		<path class="st0" d="M316.4,303.5c9.3,0,18.7,0,28,0"/>
		<rect x="56.2" y="392.3" class="st1" width="497.3" height="60.1"/>
		<rect x="92.7" y="345.1" class="st1" width="416.2" height="69.2"/>
		<rect x="113.9" y="447.6" class="st1" width="382" height="84.8"/>
		<rect x="108.3" y="310.5" class="st1" width="377.8" height="69.2"/>
		<path class="st1" d="M563.8,421.5c0-15.5,0-31,0-46.5c0-9.4,0-18.8,0-28.1c-5.3-1-17.7-4.1-29.2-14.6c-11.9-10.9-16-23.6-17.4-28.8
			c-62.4,0-124.8,0-187.2,0"/>
		<path class="st1" d="M563.8,414.3c0,24.9,0,49.8,0,74.7c-5.3,1-17.7,4.1-29.2,14.6c-11.9,10.9-16,23.6-17.4,28.8
			c-62.4,0-124.8,0-187.2,0"/>
		<path class="st0" d="M563.8,392.3"/>
		<path class="st0" d="M558,383.1"/>
		<path class="st0" d="M567.9,431.1c-7.1,0-12.9-5.8-12.9-12.9c0-7.1,5.8-12.9,12.9-12.9"/>
		<circle class="st2" cx="567.9" cy="460.5" r="8"/>
		<path class="st0" d="M567.9,473.4c-7.1,0-12.9-5.8-12.9-12.9s5.8-12.9,12.9-12.9"/>
		<circle class="st2" cx="567.9" cy="418.2" r="8"/>
		<path class="st0" d="M43.3,388.8c7.1,0,12.9-5.8,12.9-12.9c0-7.1-5.8-12.9-12.9-12.9"/>
		<circle class="st2" cx="566.3" cy="375.9" r="8"/>
		<path class="st0" d="M566.3,388.8c-7.1,0-12.9-5.8-12.9-12.9c0-7.1,5.8-12.9,12.9-12.9"/>
		<path class="st1" d="M322.4,303.5c-17.3,0-34.5,0-51.8,0"/>
		<path class="st1" d="M45.9,421.5c0-15.5,0-31,0-46.5c0-9.4,0-18.8,0-28.1c5.3-1,17.7-4.1,29.2-14.6c11.9-10.9,16-23.6,17.4-28.8
			c62.4,0,124.8,0,187.2,0"/>
		<path class="st1" d="M45.9,414.3c0,24.9,0,49.8,0,74.7c5.3,1,17.7,4.1,29.2,14.6c11.9,10.9,16,23.6,17.4,28.8
			c62.4,0,124.8,0,187.2,0"/>
		<path class="st0" d="M45.9,392.3"/>
		<path class="st0" d="M51.7,383.1"/>
		<path class="st0" d="M41.7,431.1c7.1,0,12.9-5.8,12.9-12.9c0-7.1-5.8-12.9-12.9-12.9"/>
		<circle class="st2" cx="41.7" cy="460.5" r="8"/>
		<path class="st0" d="M41.7,473.4c7.1,0,12.9-5.8,12.9-12.9s-5.8-12.9-12.9-12.9"/>
		<circle class="st2" cx="41.7" cy="418.2" r="8"/>
		<circle class="st2" cx="43.3" cy="375.9" r="8"/>
		<path class="st0" d="M43.3,388.8c7.1,0,12.9-5.8,12.9-12.9c0-7.1-5.8-12.9-12.9-12.9"/>
		<path class="st0" d="M331.5,532.4c-17.3,0-34.5,0-51.8,0"/>
		<g>
			<g>
				<line class="st3" x1="433.7" y1="327.5" x2="433.7" y2="333.5"/>
				<line class="st4" x1="433.7" y1="344.8" x2="433.7" y2="497.3"/>
				<line class="st3" x1="433.7" y1="502.9" x2="433.7" y2="508.9"/>
			</g>
		</g>
		<line class="st3" x1="151.8" y1="384.3" x2="314" y2="384.3"/>
		<line class="st3" x1="151.8" y1="401.6" x2="314" y2="401.6"/>
		<line class="st3" x1="151.8" y1="418.2" x2="314" y2="418.2"/>
		<line class="st3" x1="151.8" y1="435" x2="314" y2="435"/>
		<line class="st3" x1="151.8" y1="452.2" x2="314" y2="452.2"/>
		<path class="st3" d="M496.9,512.6H114.4c-6.6,0-12-5.4-12-12V339.5c0-6.6,5.4-12,12-12h382.6c6.6,0,12,5.4,12,12v161.1
			C508.9,507.2,503.5,512.6,496.9,512.6z"/>
	</symbol>
</svg>
