<?xml version="1.0" encoding="utf-8"?>
<!-- Generator: Adobe Illustrator 21.0.2, SVG Export Plug-In . SVG Version: 6.00 Build 0)  -->
<svg version="1.1" id="Layer_1" xmlns="http://www.w3.org/2000/svg" xmlns:xlink="http://www.w3.org/1999/xlink" x="0px" y="0px"
	 viewBox="0 0 595.3 841.9" style="enable-background:new 0 0 595.3 841.9;" xml:space="preserve">
<style type="text/css">
	.st0{fill:#FFFFFF;stroke:#000000;stroke-width:8;stroke-miterlimit:10;}
	.st1{stroke:#000000;stroke-width:8;stroke-miterlimit:10;}
</style>
<path class="st0" d="M162.9,661.6H97.6c-6.6,0-12-5.4-12-12V168c0-6.6,5.4-12,12-12h65.4c6.6,0,12,5.4,12,12v481.6
	C174.9,656.2,169.5,661.6,162.9,661.6z"/>
<rect x="166.5" y="156" class="st0" width="347.6" height="505.6"/>
<rect x="85.6" y="196.6" class="st1" width="80.9" height="41"/>
<rect x="85.6" y="264.1" class="st1" width="80.9" height="41"/>
<rect x="89.8" y="515.6" class="st1" width="76.7" height="41"/>
<rect x="86.6" y="580.9" class="st1" width="78.8" height="41"/>
<polyline class="st1" points="418.6,156 418.6,301.6 451,254.6 480.7,304.8 480.7,156 "/>
</svg>
