<?xml version="1.0" encoding="utf-8"?>
<!-- Generator: Adobe Illustrator 21.0.2, SVG Export Plug-In . SVG Version: 6.00 Build 0)  -->
<svg version="1.1" id="Layer_1" xmlns="http://www.w3.org/2000/svg" xmlns:xlink="http://www.w3.org/1999/xlink" x="0px" y="0px"
	 viewBox="0 0 595.3 841.9" style="enable-background:new 0 0 595.3 841.9;" xml:space="preserve">
<style type="text/css">
	.st0{fill:#FFFFFF;stroke:#000000;stroke-width:8;stroke-miterlimit:10;}
	.st1{fill:none;stroke:#000000;stroke-width:8;stroke-miterlimit:10;}
</style>
<ellipse transform="matrix(0.1072 -0.9942 0.9942 0.1072 -52.8714 401.1064)" class="st0" cx="196.9" cy="230" rx="48" ry="48"/>
<path class="st0" d="M191.8,277.7c0,0,30.5,4.3,44.6,34.1c14.1,29.7,32.6,8.6,32.6,8.6s-10.6-103.5-34.2-119.9"/>
<ellipse transform="matrix(0.3894 -0.9211 0.9211 0.3894 53.4088 400.2126)" class="st0" cx="328.6" cy="159.8" rx="48" ry="48"/>
<path class="st0" d="M309.9,204c0,0,27.9,12.9,32.8,45.5c4.9,32.5,28.7,17.7,28.7,17.7s19.8-102.2,1.8-124.7"/>
<path class="st0" d="M358.2,270.3c7.6,46.6,12.5,104,8.4,169.3c-7.7,122-43.6,218.4-73.1,280.5"/>
<path class="st1" d="M369.6,271.5c7.5,47.5,12.3,106,8,172.5c-8,124.3-44.1,222.7-73.7,286"/>
<path class="st0" d="M334.4,617.2"/>
<path class="st0" d="M257.6,328.1c0,0-0.1,85.6,22.5,101.2c22.1,15.2,64.7,86.8,55.1,181.4"/>
<path class="st1" d="M345.7,610.5"/>
<path class="st1" d="M268.9,321.4c0,0-0.1,85.6,22.5,101.2c19.1,13.2,53.4,68.3,56.3,144.1"/>
</svg>
