<?xml version="1.0" encoding="utf-8"?>
<!-- Generator: Adobe Illustrator 21.0.2, SVG Export Plug-In . SVG Version: 6.00 Build 0)  -->
<svg version="1.1" id="Layer_1" xmlns="http://www.w3.org/2000/svg" xmlns:xlink="http://www.w3.org/1999/xlink" x="0px" y="0px"
	 viewBox="0 0 595.3 841.9" style="enable-background:new 0 0 595.3 841.9;" xml:space="preserve">
<style type="text/css">
	.st0{fill:#FFFFFF;stroke:#000000;stroke-width:8;stroke-miterlimit:10;}
	.st1{stroke:#000000;stroke-width:8;stroke-miterlimit:10;}
</style>
<path class="st0" d="M520.8,560.2H78.5c-29.3,0-53-23.7-53-53V334.5c0-29.3,23.7-53,53-53h442.3c29.3,0,53,23.7,53,53v172.7
	C573.8,536.4,550,560.2,520.8,560.2z"/>
<rect x="25.5" y="401.4" class="st1" width="548.2" height="110"/>
<path class="st0" d="M524.5,261h-97.1c-5.7,0-10.4,4.7-10.4,10.4v0c0,5.7,4.7,10.4,10.4,10.4h97.1c5.7,0,10.4-4.7,10.4-10.4v0
	C534.9,265.6,530.2,261,524.5,261z"/>
<rect x="330.4" y="305.7" class="st0" width="204.5" height="69.7"/>
<rect x="476" y="318" class="st0" width="45.2" height="45.2"/>
<circle class="st0" cx="299.6" cy="442" r="101.4"/>
<circle class="st1" cx="299.6" cy="442" r="83.3"/>
</svg>
