<?xml version="1.0" encoding="utf-8"?>
<!-- Generator: Adobe Illustrator 21.0.2, SVG Export Plug-In . SVG Version: 6.00 Build 0)  -->
<svg version="1.1" id="Layer_1" xmlns="http://www.w3.org/2000/svg" xmlns:xlink="http://www.w3.org/1999/xlink" x="0px" y="0px"
	 viewBox="0 0 595.3 841.9" style="enable-background:new 0 0 595.3 841.9;" xml:space="preserve">
<style type="text/css">
	.st0{fill:#FFFFFF;stroke:#000000;stroke-width:8;stroke-miterlimit:10;}
	.st1{fill:none;stroke:#000000;stroke-width:8;stroke-miterlimit:10;}
</style>
<path class="st0" d="M332.2,657.2h-69.1c-15.7,0-28.4-12.7-28.4-28.4v-431c0-15.7,12.7-28.4,28.4-28.4h69.1
	c15.7,0,28.4,12.7,28.4,28.4v431C360.6,644.5,347.9,657.2,332.2,657.2z"/>
<polyline class="st1" points="274.3,169.4 274.3,178.8 274.3,657.2 "/>
<line class="st1" x1="320" y1="169.4" x2="320" y2="657.2"/>
<path class="st0" d="M293.6,56.4"/>
<path class="st0" d="M237,187.7l56.9-120.8l64.8,120.8l-18.3,26l-23.8-23.4l-18.7,31.2c-6.5-7.7-23-26.9-24.7-28.9l-24.5,24.5
	L237,187.7z"/>
<polygon points="293.9,66.9 312.6,101.8 274.3,101.8 "/>
<path class="st0" d="M234.7,636.7v32.7c0,0,2.4,15.6,63,16.1c60.6,0.5,63-13.3,63-13.3v-35.5c0,0-28.4,20.5-63,20.5
	S234.7,636.7,234.7,636.7z"/>
<path class="st0" d="M234.7,669.4v92.5c26.4,18.4,47.4,21.4,62.3,20.3c28.8-2.2,63.6-22,63.6-22v-87.9c0,0-32,13.4-63,13.3
	C266.7,685.4,234.7,669.4,234.7,669.4z"/>
</svg>
