<?xml version="1.0" encoding="utf-8"?>
<!-- Generator: Adobe Illustrator 21.0.2, SVG Export Plug-In . SVG Version: 6.00 Build 0)  -->
<svg version="1.1" id="Layer_1" xmlns="http://www.w3.org/2000/svg" xmlns:xlink="http://www.w3.org/1999/xlink" x="0px" y="0px"
	 viewBox="0 0 595.3 841.9" style="enable-background:new 0 0 595.3 841.9;" xml:space="preserve">
<style type="text/css">
	.st0{fill:#FFFFFF;stroke:#000000;stroke-width:8;stroke-miterlimit:10;}
	.st1{fill:none;stroke:#000000;stroke-width:8;stroke-linecap:round;stroke-miterlimit:10;}
</style>
<path class="st0" d="M545.8,461L116.5,567.5c-28.4,7-57.1-10.3-64.2-38.7L10.8,361.2c-7-28.4,10.3-57.1,38.7-64.2l429.3-106.5
	c28.4-7,57.1,10.3,64.2,38.7l41.6,167.6C591.5,425.2,574.2,453.9,545.8,461z"/>
<line class="st1" x1="87" y1="394.8" x2="246.1" y2="363.2"/>
<path class="st0" d="M526.6,657.7H84.3c-29.3,0-53-23.7-53-53V432c0-29.3,23.7-53,53-53h442.3c29.3,0,53,23.7,53,53v172.7
	C579.6,633.9,555.9,657.7,526.6,657.7z"/>
<rect x="437.7" y="227" transform="matrix(0.9706 -0.2408 0.2408 0.9706 -49.1602 121.5141)" class="st0" width="69.7" height="69.7"/>
<line class="st1" x1="85.5" y1="493" x2="247.7" y2="493"/>
<line class="st1" x1="85.5" y1="526.6" x2="247.7" y2="526.6"/>
<line class="st1" x1="85.5" y1="560.9" x2="247.7" y2="560.9"/>
<rect x="472.6" y="420.9" class="st0" width="69.7" height="69.7"/>
<line class="st1" x1="305.4" y1="411.9" x2="305.4" y2="624.8"/>
<path class="st1" d="M247.7,132.7"/>
<path class="st1" d="M371,442.8c0,0,25.3-8.5,43.8-7.8c18.6,0.6,37.3,9.3,54.4,9.1s28.5-6.3,28.5-6.3"/>
<path class="st1" d="M371.3,456.5c0,0,25.3-8.5,43.8-7.8s37.3,9.3,54.4,9.1c17.1-0.2,28.5-6.3,28.5-6.3"/>
<path class="st1" d="M371,470.2c0,0,25.3-8.5,43.8-7.8s37.3,9.3,54.4,9.1c17.1-0.2,28.5-6.3,28.5-6.3"/>
<path class="st1" d="M339.5,282.3c0,0,22.2-14.7,40.3-18.9c18.1-4.2,38.4-0.7,54.9-5.3c16.5-4.6,25.9-13.5,25.9-13.5"/>
<path class="st1" d="M343.3,295.5c0,0,22.2-14.7,40.3-18.9c18.1-4.2,38.4-0.7,54.9-5.3c16.5-4.6,25.9-13.5,25.9-13.5"/>
<path class="st1" d="M346.6,308.8c0,0,22.2-14.7,40.3-18.9c18.1-4.2,38.4-0.7,54.9-5.3c16.5-4.6,25.9-13.5,25.9-13.5"/>
</svg>
