<?xml version="1.0" encoding="utf-8"?>
<!-- Generator: Adobe Illustrator 21.0.2, SVG Export Plug-In . SVG Version: 6.00 Build 0)  -->
<svg version="1.1" id="Layer_1" xmlns="http://www.w3.org/2000/svg" xmlns:xlink="http://www.w3.org/1999/xlink" x="0px" y="0px"
	 viewBox="0 0 595.3 841.9" style="enable-background:new 0 0 595.3 841.9;" xml:space="preserve">
<style type="text/css">
	.st0{fill:#FFFFFF;stroke:#000000;stroke-width:8;stroke-miterlimit:10;}
	.st1{stroke:#000000;stroke-width:8;stroke-miterlimit:10;}
	.st2{fill:#FFFFFF;}
	.st3{fill:none;stroke:#FFFFFF;stroke-width:8;stroke-linecap:round;stroke-miterlimit:10;}
	.st4{fill:none;stroke:#FFFFFF;stroke-width:8;stroke-linecap:round;stroke-miterlimit:10;stroke-dasharray:11.2917,11.2917;}
</style>
<path class="st0" d="M316.4,303.5c9.3,0,18.7,0,28,0"/>
<rect x="56.2" y="392.3" class="st1" width="497.3" height="60.1"/>
<rect x="92.7" y="345.1" class="st1" width="416.2" height="69.2"/>
<rect x="113.9" y="447.6" class="st1" width="382" height="84.8"/>
<rect x="108.3" y="310.5" class="st1" width="377.8" height="69.2"/>
<path class="st1" d="M563.8,421.5c0-15.5,0-31,0-46.5c0-9.4,0-18.8,0-28.1c-5.3-1-17.7-4.1-29.2-14.6c-11.9-10.9-16-23.6-17.4-28.8
	c-62.4,0-124.8,0-187.2,0"/>
<path class="st1" d="M563.8,414.3c0,24.9,0,49.8,0,74.7c-5.3,1-17.7,4.1-29.2,14.6c-11.9,10.9-16,23.6-17.4,28.8
	c-62.4,0-124.8,0-187.2,0"/>
<path class="st0" d="M563.8,392.3"/>
<path class="st0" d="M558,383.1"/>
<path class="st0" d="M567.9,431.1c-7.1,0-12.9-5.8-12.9-12.9c0-7.1,5.8-12.9,12.9-12.9"/>
<circle class="st2" cx="567.9" cy="460.5" r="8"/>
<path class="st0" d="M567.9,473.4c-7.1,0-12.9-5.8-12.9-12.9s5.8-12.9,12.9-12.9"/>
<circle class="st2" cx="567.9" cy="418.2" r="8"/>
<path class="st0" d="M43.3,388.8c7.1,0,12.9-5.8,12.9-12.9c0-7.1-5.8-12.9-12.9-12.9"/>
<circle class="st2" cx="566.3" cy="375.9" r="8"/>
<path class="st0" d="M566.3,388.8c-7.1,0-12.9-5.8-12.9-12.9c0-7.1,5.8-12.9,12.9-12.9"/>
<path class="st1" d="M322.4,303.5c-17.3,0-34.5,0-51.8,0"/>
<path class="st1" d="M45.9,421.5c0-15.5,0-31,0-46.5c0-9.4,0-18.8,0-28.1c5.3-1,17.7-4.1,29.2-14.6c11.9-10.9,16-23.6,17.4-28.8
	c62.4,0,124.8,0,187.2,0"/>
<path class="st1" d="M45.9,414.3c0,24.9,0,49.8,0,74.7c5.3,1,17.7,4.1,29.2,14.6c11.9,10.9,16,23.6,17.4,28.8
	c62.4,0,124.8,0,187.2,0"/>
<path class="st0" d="M45.9,392.3"/>
<path class="st0" d="M51.7,383.1"/>
<path class="st0" d="M41.7,431.1c7.1,0,12.9-5.8,12.9-12.9c0-7.1-5.8-12.9-12.9-12.9"/>
<circle class="st2" cx="41.7" cy="460.5" r="8"/>
<path class="st0" d="M41.7,473.4c7.1,0,12.9-5.8,12.9-12.9s-5.8-12.9-12.9-12.9"/>
<circle class="st2" cx="41.7" cy="418.2" r="8"/>
<circle class="st2" cx="43.3" cy="375.9" r="8"/>
<path class="st0" d="M43.3,388.8c7.1,0,12.9-5.8,12.9-12.9c0-7.1-5.8-12.9-12.9-12.9"/>
<path class="st0" d="M331.5,532.4c-17.3,0-34.5,0-51.8,0"/>
<g>
	<g>
		<line class="st3" x1="433.7" y1="327.5" x2="433.7" y2="333.5"/>
		<line class="st4" x1="433.7" y1="344.8" x2="433.7" y2="497.3"/>
		<line class="st3" x1="433.7" y1="502.9" x2="433.7" y2="508.9"/>
	</g>
</g>
<line class="st3" x1="151.8" y1="384.3" x2="314" y2="384.3"/>
<line class="st3" x1="151.8" y1="401.6" x2="314" y2="401.6"/>
<line class="st3" x1="151.8" y1="418.2" x2="314" y2="418.2"/>
<line class="st3" x1="151.8" y1="435" x2="314" y2="435"/>
<line class="st3" x1="151.8" y1="452.2" x2="314" y2="452.2"/>
<path class="st3" d="M496.9,512.6H114.4c-6.6,0-12-5.4-12-12V339.5c0-6.6,5.4-12,12-12h382.6c6.6,0,12,5.4,12,12v161.1
	C508.9,507.2,503.5,512.6,496.9,512.6z"/>
</svg>
