<?xml version="1.0" encoding="utf-8"?>
<!-- Generator: Adobe Illustrator 21.0.2, SVG Export Plug-In . SVG Version: 6.00 Build 0)  -->
<svg version="1.1" id="Layer_1" xmlns="http://www.w3.org/2000/svg" xmlns:xlink="http://www.w3.org/1999/xlink" x="0px" y="0px"
	 viewBox="0 0 595.3 841.9" style="enable-background:new 0 0 595.3 841.9;" xml:space="preserve">
<style type="text/css">
	.st0{stroke:#000000;stroke-width:8;stroke-miterlimit:10;}
	.st1{fill:#FFFFFF;stroke:#000000;stroke-width:8;stroke-miterlimit:10;}
</style>
<circle class="st0" cx="94.9" cy="524.9" r="55.3"/>
<circle class="st0" cx="497.6" cy="524.9" r="55.3"/>
<path class="st1" d="M532.3,505.7H62.9c-29.3,0-53-23.7-53-53V280c0-29.3,23.7-53,53-53h469.4c29.3,0,53,23.7,53,53v172.7
	C585.3,482,561.6,505.7,532.3,505.7z"/>
<path class="st1" d="M162.3,397.9h-101c-17.6,0-31.9-14.3-31.9-31.9v-76.7c0-17.6,14.3-31.9,31.9-31.9h101
	c17.6,0,31.9,14.3,31.9,31.9v76.7C194.3,383.6,180,397.9,162.3,397.9z"/>
<path class="st1" d="M353.4,397.9H241.6c-17.6,0-31.9-14.3-31.9-31.9v-76.7c0-17.6,14.3-31.9,31.9-31.9h111.9
	c17.6,0,31.9,14.3,31.9,31.9v76.7C385.4,383.6,371.1,397.9,353.4,397.9z"/>
<path class="st1" d="M521,397.9h-90.2c-17.6,0-31.9-14.3-31.9-31.9v-76.7c0-17.6,14.3-31.9,31.9-31.9H521
	c17.6,0,31.9,14.3,31.9,31.9v76.7C552.9,383.6,538.6,397.9,521,397.9z"/>
<path class="st0" d="M61.6,313.1"/>
<path class="st0" d="M61.4,397.9l0.3-84.8c0,0-1.9-19.5,15.6-19.5s17.6,19.5,17.6,19.5v84.8"/>
<path class="st0" d="M246,397.9l0.3-84.8c0,0-1.9-19.5,15.6-19.5s17.6,19.5,17.6,19.5v84.8"/>
<path class="st0" d="M425.6,397.9l0.3-84.8c0,0-1.9-19.5,15.6-19.5s17.6,19.5,17.6,19.5v84.8"/>
<rect x="10" y="424.4" class="st0" width="575.3" height="28.3"/>
</svg>
